<svg xmlns="http://www.w3.org/2000/svg" aria-hidden="true" viewBox="0 0 62 62"><circle cx="31" cy="31" r="30.002" fill="#fff"/><path fill="#006241" d="M34.017 13.969c-.263-.047-1.531-.26-3.017-.26s-2.754.212-3.017.26c-.151.027-.209-.121-.094-.207.104-.077 3.11-2.365 3.11-2.365l3.109 2.365c.117.086.06.234-.091.207zm-5.194 14.856s-.159.057-.201.197c.63.484 1.064 1.585 2.378 1.585s1.748-1.101 2.377-1.585c-.041-.141-.2-.197-.2-.197s-.823.194-2.177.194-2.177-.194-2.177-.194zM31 26.972c-.365 0-.445-.138-.694-.137-.237.001-.697.19-.797.363a.385.385 0 0 0 .103.237c.532.08.772.376 1.389.376s.856-.296 1.389-.376a.394.394 0 0 0 .103-.237c-.099-.173-.56-.361-.798-.363-.25-.002-.331.137-.695.137zm29.956 5.673a29.9 29.9 0 0 1-.19 2.131c-3.396.562-4.61-2.464-8.089-2.312.208.738.377 1.49.507 2.258 2.869-.002 4.025 2.68 7.217 2.285-.168.82-.37 1.629-.603 2.426-2.524.248-3.413-2.26-6.334-2.191.024.416.037.836.037 1.26l-.012.701 5.672 2.164a30.089 30.089 0 0 1-.991 2.369c-1.705-.094-2.293-2.281-4.887-2.107a22.712 22.712 0 0 1-.295 1.662c2.253-.158 2.738 1.916 4.352 2.084-.411.75-.854 1.48-1.325 2.191-.956-.512-1.785-2.057-3.598-2.152a21.5 21.5 0 0 0 .487-1.748c-1.608 0-3.447-.627-4.989-2.031.5-2.846-3.917-5.744-3.917-7.828 0-2.264 1.145-3.517 1.145-6.569 0-2.265-1.1-4.722-2.759-6.401a5.542 5.542 0 0 0-1.028-.827c1.524 1.886 2.694 4.122 2.694 6.712 0 2.874-1.337 4.391-1.337 7.044 0 2.652 3.88 4.947 3.88 7.682 0 1.076-.344 2.127-1.478 4.191 1.742 1.74 4.011 2.689 5.475 2.689.475 0 .73-.145.9-.518.146-.322.285-.648.416-.977 1.577.061 2.299 1.494 3.172 2.066a30.113 30.113 0 0 1-1.509 1.865c-.585-.648-1.371-1.738-2.522-2.041-.206.4-.424.795-.653 1.182.991.27 1.669 1.27 2.194 1.928a30.315 30.315 0 0 1-1.768 1.688c-.383-.596-.979-1.352-1.647-1.76-.247.334-.504.66-.769.977.568.385 1.069 1.078 1.396 1.643a30.51 30.51 0 0 1-2.198 1.611c-.374-3.047-4.533-5.135-3.412-8.67-.368.623-.807 1.402-.807 2.34 0 2.559 2.726 4.59 2.943 7.133-.565.338-1.143.656-1.732.957-.098-2.795-2.984-5.854-2.984-8.148 0-2.561 3.354-5.133 3.354-8.156 0-3.025-3.87-5.119-3.87-7.775 0-2.654 1.646-4.181 1.646-7.583 0-2.492-1.184-5.014-3.013-6.625a4.966 4.966 0 0 0-1.026-.712c1.725 2.069 2.725 3.946 2.725 6.794 0 3.199-1.886 4.975-1.886 8.107 0 3.133 3.798 4.875 3.798 7.795s-3.535 5.381-3.535 8.381c0 2.729 3.116 5.453 3.162 8.691-.681.297-1.375.568-2.081.814.396-3.271-3.111-6.645-3.111-9.314 0-2.918 3.667-5.426 3.667-8.572 0-3.148-3.728-4.611-3.728-7.842 0-3.229 2.287-5.017 2.287-8.585 0-2.781-1.373-5.282-3.379-6.832l-.127-.096c-.189-.14-.345.029-.211.195 1.42 1.773 2.179 3.566 2.179 6.221 0 3.264-2.627 5.916-2.627 9.078 0 3.732 3.528 4.799 3.528 7.861 0 3.061-3.783 5.51-3.783 8.76 0 3.014 3.58 6.359 2.966 9.838a29.15 29.15 0 0 1-2.185.48c.672-4.332-2.84-7.443-2.84-10.277 0-3.068 3.918-5.803 3.918-8.801 0-2.828-2.812-3.752-3.182-6.645-.051-.395-.368-.688-.805-.615-.571.104-1.303.48-2.453.48s-1.882-.377-2.454-.48c-.436-.072-.753.221-.804.615-.369 2.893-3.183 3.816-3.183 6.645 0 2.998 3.919 5.732 3.919 8.801 0 2.834-3.512 5.945-2.841 10.277a30.297 30.297 0 0 1-2.185-.48c-.614-3.479 2.967-6.824 2.967-9.838 0-3.25-3.784-5.699-3.784-8.76 0-3.062 3.529-4.129 3.529-7.861 0-3.162-2.628-5.813-2.628-9.078 0-2.654.759-4.447 2.18-6.221.133-.166-.022-.335-.212-.195l-.126.096C23.372 19.736 22 22.237 22 25.018c0 3.568 2.287 5.356 2.287 8.585 0 3.23-3.728 4.693-3.728 7.842 0 3.146 3.667 5.654 3.667 8.572 0 2.67-3.507 6.043-3.11 9.314a29.738 29.738 0 0 1-2.082-.814c.047-3.238 3.161-5.963 3.161-8.691 0-3-3.533-5.461-3.533-8.381s3.796-4.662 3.796-7.795c0-3.132-1.885-4.908-1.885-8.107 0-2.848.999-4.725 2.724-6.794a4.906 4.906 0 0 0-1.025.712c-1.829 1.611-3.012 4.133-3.012 6.625 0 3.402 1.646 4.929 1.646 7.583 0 2.656-3.87 4.75-3.87 7.775 0 3.023 3.354 5.596 3.354 8.156 0 2.295-2.888 5.354-2.985 8.148a29.678 29.678 0 0 1-1.732-.957c.218-2.543 2.943-4.574 2.943-7.133 0-.938-.438-1.717-.807-2.34 1.121 3.535-3.038 5.623-3.412 8.67a30.29 30.29 0 0 1-2.198-1.611c.326-.564.827-1.258 1.396-1.643a19.776 19.776 0 0 1-.769-.977c-.669.408-1.266 1.164-1.648 1.76a30.603 30.603 0 0 1-1.767-1.688c.525-.658 1.203-1.658 2.194-1.928a22.6 22.6 0 0 1-.653-1.182c-1.151.303-1.938 1.393-2.522 2.041a30.341 30.341 0 0 1-1.509-1.865c.873-.572 1.595-2.006 3.171-2.066.132.328.271.654.417.977.17.373.426.518.9.518 1.464 0 3.732-.949 5.475-2.689-1.134-2.064-1.478-3.115-1.478-4.191 0-2.734 3.88-5.029 3.88-7.682 0-2.653-1.337-4.17-1.337-7.044 0-2.59 1.17-4.826 2.694-6.712a5.542 5.542 0 0 0-1.028.827c-1.659 1.68-2.759 4.136-2.759 6.401 0 3.052 1.146 4.305 1.146 6.569 0 2.084-4.418 4.982-3.918 7.828-1.542 1.404-3.381 2.031-4.99 2.031.14.592.303 1.174.487 1.748-1.812.096-2.641 1.641-3.598 2.152a30.207 30.207 0 0 1-1.325-2.191c1.613-.168 2.099-2.242 4.353-2.084a22.81 22.81 0 0 1-.296-1.662c-2.594-.174-3.182 2.014-4.887 2.107a30.089 30.089 0 0 1-.991-2.369l5.673-2.164-.012-.701c0-.424.013-.844.036-1.26-2.921-.068-3.81 2.439-6.334 2.191a30.254 30.254 0 0 1-.602-2.426c3.19.395 4.347-2.287 7.217-2.285.13-.768.299-1.52.506-2.258-3.479-.151-4.693 2.875-8.088 2.312a29.327 29.327 0 0 1-.19-2.131c3.947.441 5.427-2.804 9.021-2.407.339-.859.733-1.69 1.177-2.49-4.506-.792-6.036 2.976-10.23 2.397C1.464 13.97 14.717.998 31 .998S60.536 13.97 60.989 30.145c-4.195.579-5.725-3.188-10.23-2.397.443.8.837 1.631 1.177 2.49 3.592-.398 5.072 2.848 9.02 2.407zM18.104 20.062c-2.209-.903-4.883-.695-7.167.772-.354-2.125-1.507-4.013-3.149-5.152-.227-.157-.463-.008-.442.255.347 4.49-2.278 8.389-5.506 11.816 3.327 1 6.159-3.284 10.474-1.789a22.583 22.583 0 0 1 5.79-5.902zM31 17.346c-2.785 0-5.118 1.575-5.729 3.61-.047.156.017.257.197.176.501-.225 1.071-.333 1.69-.333 1.136 0 2.137.417 2.729 1.143.262.864.284 2.115-.012 2.829-.468-.105-.636-.467-1.093-.467s-.811.321-1.586.321c-.774 0-.865-.366-1.374-.366-.599 0-.709.617-.709 1.313 0 3.103 2.852 7.373 5.886 7.373 3.033 0 5.885-4.27 5.885-7.373 0-.696-.143-1.292-.769-1.373-.312.225-.599.426-1.313.426-.775 0-.989-.321-1.445-.321-.551 0-.496 1.162-1.15 1.227-.436-1.048-.457-2.392-.095-3.589.593-.726 1.593-1.143 2.729-1.143.619 0 1.193.109 1.689.333.181.081.244-.021.197-.176-.61-2.035-2.942-3.61-5.727-3.61zm4.434 4.452c-.668 0-1.451.205-1.943.753a.755.755 0 0 0 .021.519c1.211-.415 2.279-.431 2.795.146.275-.25.363-.475.363-.736 0-.403-.41-.682-1.236-.682zm-9.741 1.418c.584-.585 1.815-.56 3.094-.088.056-.636-1.083-1.331-2.221-1.331-.827 0-1.236.279-1.236.683 0 .261.088.487.363.736zm19.194-10.504c-2.199.157-4.109.912-5.654 2.17a22.189 22.189 0 0 1 2.545-5.064c-2.8.297-5.141 1.321-6.849 3.071l-1.337-3.505 2.968-2.621-3.974-.281L31 2.786l-1.587 3.696-3.974.281 2.968 2.621-1.336 3.505c-1.709-1.75-4.05-2.774-6.848-3.071a22.305 22.305 0 0 1 2.543 5.064c-1.544-1.259-3.454-2.014-5.653-2.17 1.319 1.696 2.488 3.504 3.354 5.448.098.219.308.291.535.178 3.012-1.497 6.406-2.339 9.997-2.339s6.984.843 9.998 2.339c.227.113.437.041.534-.178.867-1.944 2.036-3.752 3.356-5.448zm4.801 13.254c4.313-1.495 7.146 2.788 10.473 1.789-3.228-3.427-5.852-7.326-5.505-11.816.021-.263-.216-.413-.442-.255-1.643 1.139-2.796 3.027-3.149 5.152-2.285-1.467-4.958-1.676-7.167-.772a22.6 22.6 0 0 1 5.79 5.902zM53.595 57.01h-1.526v4.105h-.547V57.01H50v-.51h3.595v.51zm.641-.51h.811l1.57 3.618h.011l1.574-3.618H59v4.615h-.551v-3.869h-.012l-1.653 3.869h-.333l-1.659-3.869h-.011v3.869h-.545V56.5z"/></svg>